<?xml version="1.0" standalone="no"?>
<!DOCTYPE svg PUBLIC "-//W3C//DTD SVG 20010904//EN"
 "http://www.w3.org/TR/2001/REC-SVG-20010904/DTD/svg10.dtd">
<svg version="1.0" xmlns="http://www.w3.org/2000/svg"
 width="348.000000pt" height="150.000000pt" viewBox="0 0 348.000000 150.000000"
 preserveAspectRatio="xMidYMid meet">

<g transform="translate(0.000000,150.000000) scale(0.100000,-0.100000)"
fill="#000000" stroke="none">
<path d="M112 1392 c-10 -7 -12 -150 -10 -683 l3 -674 1645 0 1645 0 3 674 c2
533 0 676 -10 683 -17 10 -3259 10 -3276 0z m3246 -680 l2 -642 -1610 0 -1610
0 0 638 c0 351 3 642 7 645 3 4 727 6 1607 5 l1601 -3 3 -643z"/>
<path d="M562 713 l3 -338 163 -3 c156 -2 162 -2 162 17 0 19 -8 21 -147 23
l-148 3 -3 318 c-2 274 -4 317 -17 317 -13 0 -15 -43 -13 -337z"/>
<path d="M490 710 c0 -213 4 -330 10 -330 6 0 10 117 10 330 0 213 -4 330 -10
330 -6 0 -10 -117 -10 -330z"/>
<path d="M1083 973 c-7 -2 -13 -12 -13 -22 0 -15 13 -16 133 -13 130 4 156 10
143 31 -7 11 -238 15 -263 4z"/>
<path d="M1395 970 c-4 -6 11 -28 32 -50 21 -22 49 -53 63 -70 14 -16 31 -36
38 -44 6 -8 12 -19 12 -25 0 -6 9 -16 20 -23 11 -7 20 -18 20 -25 0 -7 9 -17
20 -23 24 -13 29 -70 5 -70 -14 0 -65 45 -65 58 0 4 -17 23 -38 43 -40 39 -56
61 -72 97 -5 12 -16 22 -23 22 -11 0 -14 -42 -16 -223 -1 -123 1 -231 5 -240
17 -46 24 0 24 167 0 148 3 186 15 196 15 13 35 6 35 -13 0 -7 19 -32 41 -57
23 -25 52 -58 65 -75 l24 -30 36 40 c20 22 58 64 85 94 48 53 61 81 36 81 -11
0 -46 -36 -65 -68 -12 -18 -72 -28 -72 -11 0 8 -20 37 -45 64 -25 28 -51 57
-58 65 -8 8 -17 23 -20 33 -4 9 -11 17 -16 17 -5 0 -13 9 -16 20 -3 11 -12 20
-20 20 -7 0 -15 9 -18 20 -5 21 -22 26 -32 10z"/>
<path d="M1874 955 c-12 -13 -24 -31 -27 -39 -4 -9 -10 -16 -15 -16 -5 0 -22
-18 -37 -40 l-28 -41 21 -15 c21 -15 22 -21 22 -220 0 -171 2 -204 14 -204 12
0 15 41 18 254 2 140 6 258 10 262 4 4 14 1 23 -6 13 -11 15 -51 15 -261 0
-216 2 -249 15 -249 13 0 15 37 13 297 -2 186 -7 298 -13 299 -5 2 -20 -7 -31
-21z"/>
<path d="M2152 955 c-85 -47 -152 -122 -152 -170 0 -39 19 -39 37 0 12 26 22
35 35 32 11 -3 18 0 18 9 0 24 29 74 43 74 7 0 29 9 50 20 24 13 56 20 92 20
36 0 68 -7 92 -20 21 -11 43 -20 50 -20 29 0 35 -44 34 -227 -1 -179 -7 -223
-34 -223 -7 0 -29 -9 -50 -20 -50 -27 -134 -27 -184 0 -21 11 -43 20 -51 20
-7 0 -20 16 -29 35 -10 21 -24 35 -35 35 -11 0 -23 11 -28 25 -10 27 -40 34
-40 10 0 -32 100 -145 128 -145 6 0 18 -8 28 -17 13 -14 38 -19 99 -21 72 -3
89 -1 137 22 54 26 128 90 128 110 0 6 -7 20 -15 30 -11 15 -15 49 -15 134 0
98 3 117 20 139 25 32 14 53 -57 113 -75 63 -219 80 -301 35z"/>
<path d="M2610 960 c0 -11 7 -20 15 -20 8 0 15 -5 15 -12 0 -7 9 -21 20 -33
46 -48 58 -64 65 -84 3 -12 13 -21 21 -21 8 0 14 -6 14 -14 0 -7 17 -31 38
-53 21 -22 41 -47 45 -56 3 -9 11 -17 17 -17 5 0 10 -9 10 -21 0 -12 8 -23 20
-26 11 -3 20 -11 20 -17 0 -16 64 -86 79 -86 6 0 11 16 11 35 0 25 -4 35 -15
35 -19 0 -75 40 -75 53 0 5 -10 20 -22 33 -47 48 -58 61 -58 70 0 5 -8 17 -17
26 -10 9 -36 37 -58 64 -22 26 -48 56 -57 66 -10 10 -18 23 -18 29 0 12 -51
69 -62 69 -5 0 -8 -9 -8 -20z"/>
<path d="M985 959 c-10 -26 -1 -574 10 -574 14 0 19 565 5 579 -6 6 -11 4 -15
-5z"/>
<path d="M2990 944 c0 -8 5 -12 10 -9 6 4 8 11 5 16 -9 14 -15 11 -15 -7z"/>
<path d="M2603 844 c-3 -9 -1 -30 4 -48 5 -18 7 -54 4 -82 -10 -82 -1 -336 12
-331 7 2 10 57 8 176 -3 174 2 201 35 201 8 0 14 -6 14 -12 0 -7 17 -32 38
-55 71 -81 82 -95 82 -104 0 -5 16 -25 35 -45 19 -19 35 -38 35 -41 0 -10 52
-63 62 -63 14 0 9 30 -7 36 -8 4 -15 12 -15 20 0 7 -9 18 -20 24 -11 6 -20 16
-20 22 0 11 -6 19 -56 71 -11 12 -23 30 -27 40 -3 9 -11 17 -17 17 -5 0 -10 7
-10 15 0 8 -9 20 -20 27 -11 7 -20 18 -20 25 0 7 -6 16 -14 20 -17 9 -66 79
-66 93 0 16 -30 11 -37 -6z"/>
<path d="M2538 795 c-7 -7 -1 -235 6 -242 15 -15 21 16 23 110 0 56 -1 110 -4
120 -4 17 -15 22 -25 12z"/>
<path d="M1977 723 c-11 -10 -8 -91 3 -98 6 -4 10 15 10 49 0 57 -1 61 -13 49z"/>
<path d="M1070 694 c0 -24 1 -24 94 -24 95 0 158 13 140 29 -5 5 -60 11 -121
14 l-113 6 0 -25z"/>
<path d="M1070 399 c0 -25 20 -29 151 -29 99 0 121 3 126 15 3 9 4 17 2 19 -2
2 -66 6 -141 8 -124 3 -138 2 -138 -13z"/>
<path d="M2950 400 c0 -13 7 -20 20 -20 23 0 26 10 8 28 -18 18 -28 15 -28 -8z"/>
</g>
</svg>
