<?xml version="1.0" standalone="no"?>
<!DOCTYPE svg PUBLIC "-//W3C//DTD SVG 20010904//EN"
 "http://www.w3.org/TR/2001/REC-SVG-20010904/DTD/svg10.dtd">
<svg version="1.0" xmlns="http://www.w3.org/2000/svg"
 width="499.000000pt" height="219.000000pt" viewBox="0 0 499.000000 219.000000"
 preserveAspectRatio="xMidYMid meet">

<g transform="translate(0.000000,219.000000) scale(0.100000,-0.100000)"
fill="#000000" stroke="none">
<path d="M210 1130 l0 -960 2310 0 2310 0 0 960 0 960 -2310 0 -2310 0 0 -960z
m4598 3 l2 -943 -2290 0 -2290 0 0 938 c0 516 3 942 7 945 3 4 1033 6 2287 5
l2281 -3 3 -942z"/>
<path d="M636 1633 c-3 -3 -6 -231 -6 -505 0 -436 2 -498 15 -498 13 0 15 62
15 499 0 275 -4 502 -9 505 -4 3 -11 3 -15 -1z"/>
<path d="M745 1629 c-3 -8 -4 -234 -3 -504 l3 -490 243 -3 c228 -2 243 -1 240
15 -3 16 -23 18 -228 23 l-225 5 -2 474 c-2 299 -6 478 -12 484 -7 7 -12 6
-16 -4z"/>
<path d="M3159 1496 c-134 -39 -240 -134 -297 -268 -23 -55 -26 -77 -26 -168
0 -91 3 -113 26 -168 37 -86 77 -139 150 -194 79 -60 150 -83 253 -83 175 0
328 109 396 283 33 81 33 242 1 323 -49 123 -150 223 -267 264 -65 23 -178 28
-236 11z m212 -42 c30 -9 78 -32 107 -51 l52 -35 0 -308 0 -308 -42 -32 c-66
-48 -164 -74 -257 -67 -84 5 -111 15 -188 65 l-53 34 0 308 0 308 53 35 c97
65 218 83 328 51z m-411 -399 c0 -140 -4 -255 -9 -255 -4 0 -22 26 -39 58 -42
78 -59 180 -44 268 14 83 59 184 83 184 5 0 9 -115 9 -255z m644 213 c53 -93
69 -212 42 -313 -17 -66 -64 -157 -76 -150 -13 8 -13 505 0 505 5 0 20 -19 34
-42z"/>
<path d="M1380 1060 c0 -376 2 -430 15 -430 13 0 15 54 15 430 0 376 -2 430
-15 430 -13 0 -15 -54 -15 -430z"/>
<path d="M1500 1060 l0 -430 201 0 c186 0 200 1 197 18 -3 15 -21 17 -186 20
l-182 2 0 200 0 200 144 0 c96 0 147 4 152 11 13 22 -23 29 -158 29 l-138 0 0
170 0 170 182 2 c165 3 183 5 186 21 3 16 -11 17 -197 17 l-201 0 0 -430z"/>
<path d="M1990 1483 c0 -5 48 -64 106 -133 58 -69 139 -167 181 -218 l76 -93
-30 -31 -30 -30 -144 175 c-79 97 -147 176 -151 176 -5 1 -8 -156 -8 -349 0
-304 2 -350 15 -350 13 0 15 41 15 305 0 171 4 305 9 305 5 0 64 -67 132 -149
68 -83 129 -150 135 -150 6 -1 75 77 154 172 78 94 146 174 151 175 5 2 9
-142 9 -327 0 -288 2 -331 15 -331 13 0 15 46 15 354 l0 353 36 47 c20 26 38
45 41 43 2 -3 5 -182 6 -398 2 -343 4 -394 17 -394 13 0 15 54 15 425 0 370
-2 425 -15 427 -9 2 -86 -83 -189 -207 -96 -116 -177 -210 -180 -210 -3 0 -84
95 -180 210 -151 182 -202 233 -201 203z"/>
<path d="M3790 1480 c0 -6 24 -39 53 -73 28 -35 153 -187 276 -340 123 -152
228 -277 233 -277 4 0 8 158 8 350 0 304 -2 350 -15 350 -13 0 -15 -41 -15
-305 0 -238 -3 -305 -12 -305 -7 1 -48 45 -90 98 -238 300 -410 507 -423 510
-8 2 -15 -1 -15 -8z"/>
<path d="M3786 1320 c-3 -8 -4 -166 -3 -350 2 -290 4 -335 17 -335 13 0 15 41
18 303 1 166 6 302 10 301 4 0 44 -46 88 -102 377 -472 434 -538 434 -498 0 6
-60 84 -133 173 -73 90 -191 235 -262 323 -72 88 -138 169 -147 180 -14 16
-17 17 -22 5z"/>
</g>
</svg>
